<svg xmlns="http://www.w3.org/2000/svg" xmlns:xlink="http://www.w3.org/1999/xlink">
    <symbol id="icon-hud" viewBox="0 0 20 22">
        <title>HUD</title>
        <g id="icon-hud-group" fill="none" stroke-width="1" stroke-linecap="round" stroke-linejoin="round">
            <path id="icon-hud-dashes" d="m14.5,2.75 2,0 a2.5 2.5 0 0 1 2.5 2.5 l0,13.25 a2.5 2.5 0 0 1 -2.5 2.5 l-11.5,0 a2.5 2.5 0 0 1 -2.5 -2.5 l0,-1" stroke-dasharray="1,3" />
            <path id="icon-hud-box" d="m0.5,2 0,14 a1.5 1.5 0 0 0 1.5 1.5 l12,0 a1.5 1.5 0 0 0 1.5 -1.5 l0,-14" />
            <path id="icon-hud-top" d="m2,2 12,0" stroke-width="4" />
            <path id="icon-hud-paralel" d="m4.4,7.5 7.2,0 m0,3 -7.2,0 m0,3 7.2,0" stroke-linecap="square" />
        </g>
    </symbol>
    <symbol id="icon-measurements-additional" viewBox="0 0 16 16">
        <title>Additional Measurements</title>
        <g id="icon-measurements-additional-group" stroke="none">
            <path id="icon-measurements-additional-boxes" d="M11,2 l1.85,-1.85 a1 1 0 0 1 1,0 l2,2 a1 1 0 0 1 0,1 l-1.85,1.85Z  M10,3 l-10,10 0,3 3,0 10,-10Z M16,16 l0,-2 -9,0 -2,2Z" />
        </g>
    </symbol>
    <symbol id="icon-measurements-lesions" viewBox="0 0 18 10">
        <title>Lesions</title>
        <g id="icon-measurements-lesions-group" stroke="none">
            <path id="icon-measurements-lesions-boxes" d="M0,0 2,0 2,2 0,2Z M4,0 18,0 18,2 4,2Z M0,4 2,4 2,6 0,6Z M4,4 18,4 18,6 4,6Z M0,8 2,8 2,10 0,10Z M4,8 18,8 18,10 4,10Z" />
        </g>
    </symbol>
    <symbol id="icon-settings" viewBox="0 0 15 15">
        <title>Settings</title>
        <path d="M12.85 8.25C12.85 8.03 12.93 7.8 12.93 7.5 12.93 7.2 12.93 6.98 12.85 6.75L14.43 5.48C14.58 5.33 14.58 5.18 14.5 5.03L13 2.4C12.93 2.33 12.78 2.25 12.55 2.33L10.68 3.08C10.3 2.78 9.85 2.55 9.4 2.33L9.1 0.38C9.18 0.15 8.95 0 8.8 0L5.8 0C5.65 0 5.43 0.15 5.43 0.3L5.13 2.33C4.68 2.48 4.3 2.78 3.85 3.08L2.05 2.33C1.83 2.25 1.68 2.33 1.53 2.48L0.03 5.1C-0.05 5.18 0.03 5.4 0.18 5.55L1.75 6.75C1.75 6.98 1.68 7.2 1.68 7.5 1.68 7.8 1.68 8.03 1.75 8.25L0.18 9.53C0.03 9.68 0.03 9.82 0.1 9.98L1.6 12.6C1.68 12.68 1.83 12.75 2.05 12.68L3.93 11.93C4.3 12.23 4.75 12.45 5.2 12.68L5.5 14.63C5.5 14.78 5.65 14.93 5.88 14.93L8.88 14.93C9.03 14.93 9.25 14.78 9.25 14.63L9.55 12.68C10 12.45 10.45 12.23 10.83 11.93L12.7 12.68C12.85 12.75 13.08 12.68 13.15 12.53L14.65 9.9C14.73 9.75 14.73 9.53 14.58 9.45L12.85 8.25 12.85 8.25ZM7.3 10.13C5.88 10.13 4.68 8.93 4.68 7.5 4.68 6.08 5.88 4.88 7.3 4.88 8.73 4.88 9.93 6.08 9.93 7.5 9.93 8.93 8.73 10.13 7.3 10.13L7.3 10.13Z" id="Shape"/>
    </symbol>
    <symbol id="icon-status-complete" viewBox="0 0 27 27">
        <title>Complete</title>
        <g id="icon-status-complete-group" stroke="none">
            <path id="icon-status-complete-circle" d="M13.5,0 a13.5 13.5 0 0 1 0 27 a13.5 13.5 0 0 1 0 -27 M23,8 l-2,-2 -10,10, -5,-5 -2,2 7,7Z" />
        </g>
    </symbol>
    <symbol id="icon-status-lock" viewBox="0 0 16 21">
        <title>Locked</title>
        <path d="M14 7L13 7 13 5C13 2.2 10.8 0 8 0 5.2 0 3 2.2 3 5L3 7 2 7C0.9 7 0 7.9 0 9L0 19C0 20.1 0.9 21 2 21L14 21C15.1 21 16 20.1 16 19L16 9C16 7.9 15.1 7 14 7L14 7ZM11.1 7L4.9 7 4.9 5C4.9 3.3 6.3 1.9 8 1.9 9.7 1.9 11.1 3.3 11.1 5L11.1 7 11.1 7Z"/>
    </symbol>
    <symbol id="icon-studies" viewBox="0 0 15 13">
        <title>Studies</title>
        <g id="icon-studies-group" stroke="none">
            <path id="icon-studies-boxes" d="M0,0 7,0 7,6 0,6Z M8,0 15,0 15,6 8,6Z M0,7 7,7 7,13 0,13Z M8,7 15,7 15,13 8,13Z" />
        </g>
    </symbol>
    <symbol id="icon-tools-levels" viewBox="0 0 18 18">
        <title>Window / Level</title>
        <g id="icon-tools-levels-group">
            <path id="icon-tools-levels-path" d="M14.5,3.5 a1 1 0 0 1 -11,11 Z" stroke="none" opacity="0.8" />
            <circle id="icon-tools-levels-circle" cx="9" cy="9" r="8" fill="none" stroke-width="2" />
        </g>
    </symbol>
    <symbol id="icon-tools-link" viewBox="0 0 23 15">
        <title>Link</title>
        <g id="icon-tools-link-group" stroke="none">
            <circle id="icon-tools-link-circle-l" opacity="0.8" cx="7.5" cy="7.5" r="7.5" />
            <circle id="icon-tools-link-circle-r" opacity="0.6" cx="15.5" cy="7.5" r="7.5" />
        </g>
    </symbol>
    <symbol id="icon-tools-measure-non-target" viewBox="0 0 24 24">
        <title>Non-Target Measurement</title>
        <g id="icon-tools-measure-non-target-group" fill="none" stroke-width="1" stroke-linecap="round" stroke-linejoin="round">
            <circle id="icon-tools-measure-non-target-circle" cx="6.5" cy="6.5" r="6" />
            <path id="icon-tools-measure-non-target-plus" d="M6.5,3 l0,7 M3,6.5 l7,0"></path>
            <path id="icon-tools-measure-non-target-arrow" d="M23,7 l-15,15 M7,17 l0,6 6,0" stroke-width="2" />
        </g>
    </symbol>
    <symbol id="icon-tools-measure-target" viewBox="0 0 26 26">
        <title>Target Measurement</title>
        <g id="icon-tools-measure-target-group" stroke-width="0">
            <path id="icon-tools-measure-target-ruler" d="m9.5,26 2,-2 -1.5,-1.5 0.5,-0.5 1.5,1.5 1.5,-1.5 -2.5,-2.5 0.5,-0.5 2.5,2.5 1.5,-1.5 -1.5,-1.5 0.5,-0.5 1.5,1.5 1.5,-1.5 -2.5,-2.5 0.5,-0.5 2.5,2.5 1.5,-1.5 -1.5,-1.5 0.5,-0.5 1.5,1.5 1.5,-1.5 -2.5,-2.5 0.5,-0.5 2.5,2.5 1.5,-1.5 -1.5,-1.5 0.5,-0.5 1.5,1.5 2,-2 -4,-4 a2 2 0 0 0 -2.5 0 l-14 14 a2 2 0 0 0 0 2.5 l4,4 Z" />
            <path id="icon-tools-measure-target-plus" d="m6,0 a6 6 0 0 1 0 12 a6 6 0 0 1 0 -12 m0.5,3 a0.5 0.5 0 0 0 -1 0 l0,2.5 -2.5,0 a0.5 0.5 0 0 0 0 1 l2.5,0 0,2.5 a0.5 0.5 0 0 0 1 0 l0,-2.5 2.5,0 a0.5 0.5 0 0 0 0 -1 l-2.5,0 z" />
        </g>
    </symbol>
    <symbol id="icon-tools-measure-target-cr" viewBox="0 0 24 24">
        <title>Target CR Measurement</title>
        <g id="icon-tools-measure-target-cr-group" fill="none" stroke-width="1" stroke-linecap="round" stroke-linejoin="round">
            <text id="icon-tools-measure-target-cr-text" fill="#000000" x="0" y="8" style="font-size:10px; font-family:sans-serif">CR</text>
            <path id="icon-tools-measure-target-cr-arrow" d="M23,7 l-15,15 M7,17 l0,6 6,0" stroke-width="2" />
        </g>
    </symbol>
    <symbol id="icon-tools-measure-target-un" viewBox="0 0 24 24">
        <title>Target UN Measurement</title>
        <g id="icon-tools-measure-target-un-group" fill="none" stroke-width="1" stroke-linecap="round" stroke-linejoin="round">
            <text id="icon-tools-measure-target-un-text" fill="#000000" x="0" y="8" style="font-size:10px; font-family:sans-serif">UN</text>
            <path id="icon-tools-measure-target-un-arrow" d="M23,7 l-15,15 M7,17 l0,6 6,0" stroke-width="2" />
        </g>
    </symbol>
    <symbol id="icon-tools-measure-temp" viewBox="0 0 24 24">
        <title>Temporary Measurement</title>
        <g id="icon-tools-measure-temp-group" fill="none" stroke-width="1" stroke-linecap="round" stroke-linejoin="round">
            <circle id="icon-tools-measure-temp-circle" cx="6.5" cy="6.5" r="6" />
            <path id="icon-tools-measure-temp-plus" d="M6.5,3 l0,7 M3,6.5 l7,0"></path>
            <path id="icon-tools-measure-temp-dashes" d="m22.5,6 -16.5,16.5" stroke-width="3" stroke-dasharray="0.6666,5" />
        </g>
    </symbol>
    <symbol id="icon-tools-more" viewBox="0 0 18 18">
        <title>More</title>
        <g id="icon-tools-more-group" stroke="none">
            <path id="icon-tools-more-circle" d="M9,0 a9 9 0 0 1 0 18 a9 9 0 0 1 0 -18 M4.5,8 a1.5 1.5 0 0 0 0 3 a1.5 1.5 0 0 0 0 -3 M9,8 a1.5 1.5 0 0 0 0 3 a1.5 1.5 0 0 0 0 -3  M13.5,8 a1.5 1.5 0 0 0 0 3 a1.5 1.5 0 0 0 0 -3" />
        </g>
    </symbol>
    <symbol id="icon-tools-pan" viewBox="0 0 18 18">
        <title>Pan</title>
        <g id="icon-tools-pan-group" fill="none" stroke-width="2" stroke-linecap="round" stroke-linejoin="round">
            <path id="icon-tools-pan-line-v" d="M9,1 L9,17"></path>
            <path id="icon-tools-pan-line-h" d="M1,9 L17,9"></path>
            <polyline id="icon-tools-pan-caret-t" points="7 3 9 1 11 3"></polyline>
            <polyline id="icon-tools-pan-caret-r" points="15 11 17 9 15 7"></polyline>
            <polyline id="icon-tools-pan-caret-b" points="11 15 9 17 7 15"></polyline>
            <polyline id="icon-tools-pan-caret-l" points="3 7 1 9 3 11"></polyline>
        </g>
    </symbol>
    <symbol id="icon-tools-zoom" viewBox="0 0 17 17">
        <title>Zoom</title>
        <g id="icon-tools-zoom-group" fill="none" stroke-width="2" stroke-linecap="round">
            <path id="icon-tools-zoom-path" d="m11.5,11.5 4.5,4.5" />
            <circle id="icon-tools-zoom-circle" cx="7" cy="7" r="6" />
        </g>
    </symbol>
    <symbol id="icon-tools-invert" viewBox="0 0 24 28">
        <title>Invert</title>
        <path d="M12 22.5v-17c-4.688 0-8.5 3.813-8.5 8.5s3.813 8.5 8.5 8.5zM24 14c0 6.625-5.375 12-12 12s-12-5.375-12-12 5.375-12 12-12 12 5.375 12 12z"></path>
    </symbol>
    <symbol id="icon-tools-stack-scroll" viewBox="0 0 24 28">
        <title>Stack Scroll</title>
        <path d="M24 21v2c0 0.547-0.453 1-1 1h-22c-0.547 0-1-0.453-1-1v-2c0-0.547 0.453-1 1-1h22c0.547 0 1 0.453 1 1zM24 13v2c0 0.547-0.453 1-1 1h-22c-0.547 0-1-0.453-1-1v-2c0-0.547 0.453-1 1-1h22c0.547 0 1 0.453 1 1zM24 5v2c0 0.547-0.453 1-1 1h-22c-0.547 0-1-0.453-1-1v-2c0-0.547 0.453-1 1-1h22c0.547 0 1 0.453 1 1z"></path>
    </symbol>
    <symbol id="icon-tools-elliptical-roi" viewBox="0 0 24 28">
        <title>Elliptical ROI</title>
        <path d="M12 5.5c-4.688 0-8.5 3.813-8.5 8.5s3.813 8.5 8.5 8.5 8.5-3.813 8.5-8.5-3.813-8.5-8.5-8.5zM24 14c0 6.625-5.375 12-12 12s-12-5.375-12-12 5.375-12 12-12v0c6.625 0 12 5.375 12 12z"></path>
    </symbol>
    <symbol id="icon-tools-magnify" viewBox="0 0 24 28">
        <title>Magnify</title>
        <path d="M24 14c0 6.625-5.375 12-12 12s-12-5.375-12-12 5.375-12 12-12 12 5.375 12 12z"></path>
    </symbol>
    <symbol id="icon-tools-reset" viewBox="0 0 24 28">
        <title>Reset</title>
        <path d="M24 14c0 6.609-5.391 12-12 12-3.578 0-6.953-1.578-9.234-4.328-0.156-0.203-0.141-0.5 0.031-0.672l2.141-2.156c0.109-0.094 0.25-0.141 0.391-0.141 0.141 0.016 0.281 0.078 0.359 0.187 1.531 1.984 3.828 3.109 6.312 3.109 4.406 0 8-3.594 8-8s-3.594-8-8-8c-2.047 0-3.984 0.781-5.437 2.141l2.141 2.156c0.297 0.281 0.375 0.719 0.219 1.078-0.156 0.375-0.516 0.625-0.922 0.625h-7c-0.547 0-1-0.453-1-1v-7c0-0.406 0.25-0.766 0.625-0.922 0.359-0.156 0.797-0.078 1.078 0.219l2.031 2.016c2.203-2.078 5.187-3.313 8.266-3.313 6.609 0 12 5.391 12 12z"></path>
    </symbol>
    <symbol id="icon-tools-rotate" viewBox="0 0 24 28">
        <title>Rotate</title>
        <path d="M24 4v7c0 0.547-0.453 1-1 1h-7c-0.406 0-0.766-0.25-0.922-0.625-0.156-0.359-0.078-0.797 0.219-1.078l2.156-2.156c-1.469-1.359-3.406-2.141-5.453-2.141-4.406 0-8 3.594-8 8s3.594 8 8 8c2.484 0 4.781-1.125 6.312-3.109 0.078-0.109 0.219-0.172 0.359-0.187 0.141 0 0.281 0.047 0.391 0.141l2.141 2.156c0.187 0.172 0.187 0.469 0.031 0.672-2.281 2.75-5.656 4.328-9.234 4.328-6.609 0-12-5.391-12-12s5.391-12 12-12c3.078 0 6.062 1.234 8.266 3.313l2.031-2.016c0.281-0.297 0.719-0.375 1.094-0.219 0.359 0.156 0.609 0.516 0.609 0.922z"></path>
    </symbol>
    <symbol id="icon-tools-rotate-right" viewBox="0 0 24 24">
        <title>Rotate Right</title>
        <path d="M16.875 15.469c0.563-0.75 0.891-1.594 1.031-2.484h2.016c-0.188 1.406-0.703 2.719-1.594 3.891zM12.984 17.906c0.891-0.141 1.734-0.469 2.484-1.031l1.453 1.453c-1.172 0.891-2.531 1.406-3.938 1.594v-2.016zM19.922 11.016h-2.016c-0.141-0.891-0.469-1.734-1.031-2.484l1.453-1.406c0.891 1.172 1.406 2.484 1.594 3.891zM15.563 5.531l-4.547 4.453v-3.891c-2.859 0.469-5.016 2.953-5.016 5.906s2.156 5.438 5.016 5.906v2.016c-3.938-0.469-7.031-3.844-7.031-7.922s3.094-7.453 7.031-7.922v-3.094z"></path>
    </symbol>
    <symbol id="icon-tools-cineplay-toggle" viewBox="0 0 28 28">
        <title>Cineplay Toggle</title>
        <path d="M11.109 17.625l7.562-3.906-7.562-3.953v7.859zM14 4.156c5.891 0 9.797 0.281 9.797 0.281 0.547 0.063 1.75 0.063 2.812 1.188 0 0 0.859 0.844 1.109 2.781 0.297 2.266 0.281 4.531 0.281 4.531v2.125s0.016 2.266-0.281 4.531c-0.25 1.922-1.109 2.781-1.109 2.781-1.062 1.109-2.266 1.109-2.812 1.172 0 0-3.906 0.297-9.797 0.297v0c-7.281-0.063-9.516-0.281-9.516-0.281-0.625-0.109-2.031-0.078-3.094-1.188 0 0-0.859-0.859-1.109-2.781-0.297-2.266-0.281-4.531-0.281-4.531v-2.125s-0.016-2.266 0.281-4.531c0.25-1.937 1.109-2.781 1.109-2.781 1.062-1.125 2.266-1.125 2.812-1.188 0 0 3.906-0.281 9.797-0.281v0z"></path>
    </symbol>
    <symbol id="icon-tools-flip-vertical" viewBox="0 0 6 28">
        <title>Vertical</title>
        <path d="M6 19.5v3c0 0.828-0.672 1.5-1.5 1.5h-3c-0.828 0-1.5-0.672-1.5-1.5v-3c0-0.828 0.672-1.5 1.5-1.5h3c0.828 0 1.5 0.672 1.5 1.5zM6 11.5v3c0 0.828-0.672 1.5-1.5 1.5h-3c-0.828 0-1.5-0.672-1.5-1.5v-3c0-0.828 0.672-1.5 1.5-1.5h3c0.828 0 1.5 0.672 1.5 1.5zM6 3.5v3c0 0.828-0.672 1.5-1.5 1.5h-3c-0.828 0-1.5-0.672-1.5-1.5v-3c0-0.828 0.672-1.5 1.5-1.5h3c0.828 0 1.5 0.672 1.5 1.5z"></path>
    </symbol>
    <symbol id="icon-tools-flip-horizontal" viewBox="0 0 22 28">
        <title>Horizontal</title>
        <path d="M6 11.5v3c0 0.828-0.672 1.5-1.5 1.5h-3c-0.828 0-1.5-0.672-1.5-1.5v-3c0-0.828 0.672-1.5 1.5-1.5h3c0.828 0 1.5 0.672 1.5 1.5zM14 11.5v3c0 0.828-0.672 1.5-1.5 1.5h-3c-0.828 0-1.5-0.672-1.5-1.5v-3c0-0.828 0.672-1.5 1.5-1.5h3c0.828 0 1.5 0.672 1.5 1.5zM22 11.5v3c0 0.828-0.672 1.5-1.5 1.5h-3c-0.828 0-1.5-0.672-1.5-1.5v-3c0-0.828 0.672-1.5 1.5-1.5h3c0.828 0 1.5 0.672 1.5 1.5z"></path>
    </symbol>
    <symbol id="icon-trial-info" viewBox="0 0 20 20">
        <title>Trial Information</title>
        <g id="icon-trial-info-group" fill="none" stroke-width="2">
            <path id="icon-trial-info-circle" d="M10,1 a9 9 0 0 1 0 18 a9 9 0 0 1 0 -18 M10,5 l0,2 m0,2 0,6" />
        </g>
    </symbol>
    <symbol id="icon-ui-accordion-expand" viewBox="0 0 12 8">
        <title>Expand</title>
        <polygon transform="translate(6.000000, 3.700000) rotate(-270.000000) translate(-6.000000, -3.700000) " points="3.7 -2.3 2.3 -0.9 6.9 3.7 2.3 8.3 3.7 9.7 9.7 3.7"/>
    </symbol>
    <symbol id="icon-ui-add" viewBox="0 0 12 13">
        <title>Add</title>
        <path d="M6.5 7L6.5 12C6.5 12.28 6.28 12.5 6 12.5 5.72 12.5 5.5 12.28 5.5 12L5.5 7 0.5 7C0.22 7 0 6.78 0 6.5 0 6.22 0.22 6 0.5 6L5.5 6 5.5 1C5.5 0.72 5.72 0.5 6 0.5 6.28 0.5 6.5 0.72 6.5 1L6.5 6 11.5 6C11.78 6 12 6.22 12 6.5 12 6.78 11.78 7 11.5 7L6.5 7Z" id="Combined-Shape"/>
    </symbol>
    <symbol id="icon-ui-close" viewBox="0 0 14 14">
        <title>Close</title>
        <g id="icon-ui-close-group" stroke-width="1.75">
            <path id="icon-ui-close-path" d="M1,1 13,13 M1,13 13,1" />
        </g>
    </symbol>
    <symbol id="icon-create-comment" viewBox="0 0 37 34">
        <title>Comment</title>
        <path fill="#94a8b3" d="M22.32 14L35 14C36.1 14 37 14.9 37 16L37 28C37 29.1 36.1 30 35 30L21 30 17 34 17 20.39C19.45 18.97 21.36 16.71 22.32 14Z" id="Combined-Shape"/>
        <path d="M10 0C4.5 0 0 4.5 0 10 0 15.5 4.5 20 10 20 15.5 20 20 15.5 20 10 20 4.5 15.5 0 10 0L10 0ZM15 11L11 11 11 15 9 15 9 11 5 11 5 9 9 9 9 5 11 5 11 9 15 9 15 11 15 11Z" id="Shape"/>
    </symbol>
    <symbol id="icon-create-screen-capture" viewBox="0 0 37 35">
        <title>Capture Screen</title>
        <g id="camera-alt" transform="translate(17.000000, 17.000000)" fill="#94a8b3">
            <path d="M10 13C11.66 13 13 11.66 13 10 13 8.34 11.66 7 10 7 8.34 7 7 8.34 7 10 7 11.66 8.34 13 10 13Z" id="Oval"/>
            <path d="M7 0L5.2 2 2 2C0.9 2 0 2.9 0 4L0 16C0 17.1 0.9 18 2 18L18 18C19.1 18 20 17.1 20 16L20 4C20 2.9 19.1 2 18 2L14.8 2 13 0 7 0 7 0ZM10 15C7.2 15 5 12.8 5 10 5 7.2 7.2 5 10 5 12.8 5 15 7.2 15 10 15 12.8 12.8 15 10 15L10 15Z" id="Shape"/>
        </g>
        <path d="M10 0C4.5 0 0 4.5 0 10 0 15.5 4.5 20 10 20 15.5 20 20 15.5 20 10 20 4.5 15.5 0 10 0L10 0ZM15 11L11 11 11 15 9 15 9 11 5 11 5 9 9 9 9 5 11 5 11 9 15 9 15 11 15 11Z" id="Shape"/>
    </symbol>
    <symbol id="icon-ui-warning" viewBox="0 0 22 20">
        <title>Warning</title>
        <g id="icon-ui-warning-group" stroke="none">
            <path d="m11,0 11,20 -22,0Z m1,7 -2,0 0,6 2,0Z m0,8 -2,0 0,2 2,0Z" />
        </g>
    </symbol>
    <symbol id="icon-ohif-logo" viewBox="0 0 47 47">
        <title>Open Health Imaging Foundation</title>
        <g id="icon-ohif-logo" stroke="#fff" stroke-width="2.5" stroke-miterlimit="10">
            <rect x="1.25" y="1.25" width="18.8" height="18.8" rx="1" ry="1"/>
            <rect x="26" y="1.25" width="18.8" height="18.8" rx="1" ry="1"/>
            <rect x="1.25" y="26" width="18.8" height="18.8" rx="1" ry="1"/>
            <rect x="26" y="26" width="18.8" height="18.8" rx="1" ry="1"/>
        </g>
    </symbol>
    <symbol id="icon-viewport-link" viewBox="0 0 32 32">
        <title>Viewport Link</title>
        <g id="icon-viewport-link-group" stroke="none">
            <path d="m5.364 28.917c1.047 1.046 2.422 1.57 3.797 1.57 1.376 0 2.751-0.523 3.798-1.572l7.552-7.554c1.016-1.014 1.574-2.361 1.574-3.797 -0.001-1.432-0.558-2.781-1.574-3.796l-2.297-2.298 -2.009 2.009 2.297 2.298c0.478 0.478 0.741 1.113 0.741 1.788 0 0.674-0.264 1.309-0.741 1.786l-7.553 7.555c-0.987 0.985-2.59 0.985-3.576 0l-2.297-2.298c-0.987-0.985-0.987-2.589 0-3.576l3.775-3.776 -2.009-2.009 -3.776 3.776c-2.094 2.096-2.092 5.502 0 7.595l2.299 2.3zM26.695 2.992"/>
            <path d="m26.695 2.992c-1.014-1.016-2.362-1.575-3.797-1.575 -0.001 0-0.001 0-0.002 0 -1.435 0-2.784 0.56-3.798 1.573l-7.551 7.553c-1.017 1.016-1.576 2.363-1.576 3.799 0 1.434 0.558 2.784 1.574 3.797l2.297 2.297 2.01-2.009 -2.298-2.297c-0.477-0.477-0.741-1.113-0.741-1.788 0-0.676 0.265-1.311 0.742-1.788l7.553-7.555c0.477-0.477 1.111-0.74 1.789-0.74 0 0 0 0 0.001 0 0.674 0 1.309 0.264 1.786 0.74l2.297 2.299c0.477 0.477 0.74 1.111 0.74 1.788 0 0.674-0.264 1.311-0.74 1.788l-3.776 3.777 2.009 2.009 3.776-3.777c1.014-1.013 1.573-2.363 1.574-3.797 0-1.435-0.56-2.784-1.574-3.797l-2.295-2.296z"/>
        </g>
    </symbol>
    <symbol id="theme" viewBox="0 0 24 24">
        <title>Theme</title>
        <path d="M17.484 12c0.844 0 1.5-0.656 1.5-1.5s-0.656-1.5-1.5-1.5-1.5 0.656-1.5 1.5 0.656 1.5 1.5 1.5zM14.484 8.016c0.844 0 1.5-0.656 1.5-1.5s-0.656-1.5-1.5-1.5-1.5 0.656-1.5 1.5 0.656 1.5 1.5 1.5zM9.516 8.016c0.844 0 1.5-0.656 1.5-1.5s-0.656-1.5-1.5-1.5-1.5 0.656-1.5 1.5 0.656 1.5 1.5 1.5zM6.516 12c0.844 0 1.5-0.656 1.5-1.5s-0.656-1.5-1.5-1.5-1.5 0.656-1.5 1.5 0.656 1.5 1.5 1.5zM12 3c4.969 0 9 3.609 9 8.016 0 2.766-2.25 4.969-5.016 4.969h-1.734c-0.844 0-1.5 0.656-1.5 1.5 0 0.375 0.141 0.703 0.375 0.984s0.375 0.656 0.375 1.031c0 0.844-0.656 1.5-1.5 1.5-4.969 0-9-4.031-9-9s4.031-9 9-9z"></path>
    </symbol>
    <symbol id="log" viewBox="0 0 24 24">
        <title>Log</title>
        <path d="M9.516 14.016c2.484 0 4.5-2.016 4.5-4.5s-2.016-4.5-4.5-4.5-4.5 2.016-4.5 4.5 2.016 4.5 4.5 4.5zM15.516 14.016l4.969 4.969-1.5 1.5-4.969-4.969v-0.797l-0.281-0.281c-1.125 0.984-2.625 1.547-4.219 1.547-3.609 0-6.516-2.859-6.516-6.469s2.906-6.516 6.516-6.516 6.469 2.906 6.469 6.516c0 1.594-0.563 3.094-1.547 4.219l0.281 0.281h0.797z"></path>
    </symbol>
    <symbol id="server" viewBox="0 0 24 28">
        <title>Server</title>
        <path d="M12 12c4.703 0 9.422-0.844 12-2.656v2.656c0 2.203-5.375 4-12 4s-12-1.797-12-4v-2.656c2.578 1.813 7.297 2.656 12 2.656zM12 24c4.703 0 9.422-0.844 12-2.656v2.656c0 2.203-5.375 4-12 4s-12-1.797-12-4v-2.656c2.578 1.813 7.297 2.656 12 2.656zM12 18c4.703 0 9.422-0.844 12-2.656v2.656c0 2.203-5.375 4-12 4s-12-1.797-12-4v-2.656c2.578 1.813 7.297 2.656 12 2.656zM12 0c6.625 0 12 1.797 12 4v2c0 2.203-5.375 4-12 4s-12-1.797-12-4v-2c0-2.203 5.375-4 12-4z"></path>
    </symbol>
    <symbol id="study-list" viewBox="0 0 24 24">
        <title>Study List</title>
        <path d="M9 5.016h12v3.984h-12v-3.984zM9 18.984v-3.984h12v3.984h-12zM9 14.016v-4.031h12v4.031h-12zM3.984 9v-3.984h4.031v3.984h-4.031zM3.984 18.984v-3.984h4.031v3.984h-4.031zM3.984 14.016v-4.031h4.031v4.031h-4.031z"></path>
    </symbol>
    <symbol id="logout" viewBox="0 0 24 28">
        <title>Logout</title>
        <path d="M24 14c0 6.609-5.391 12-12 12s-12-5.391-12-12c0-3.797 1.75-7.297 4.797-9.578 0.891-0.672 2.141-0.5 2.797 0.391 0.672 0.875 0.484 2.141-0.391 2.797-2.031 1.531-3.203 3.859-3.203 6.391 0 4.406 3.594 8 8 8s8-3.594 8-8c0-2.531-1.172-4.859-3.203-6.391-0.875-0.656-1.062-1.922-0.391-2.797 0.656-0.891 1.922-1.062 2.797-0.391 3.047 2.281 4.797 5.781 4.797 9.578zM14 2v10c0 1.094-0.906 2-2 2s-2-0.906-2-2v-10c0-1.094 0.906-2 2-2s2 0.906 2 2z"></path>
    </symbol>
    <symbol id="password" viewBox="0 0 18 28">
        <title>Password</title>
        <path d="M5 12h8v-3c0-2.203-1.797-4-4-4s-4 1.797-4 4v3zM18 13.5v9c0 0.828-0.672 1.5-1.5 1.5h-15c-0.828 0-1.5-0.672-1.5-1.5v-9c0-0.828 0.672-1.5 1.5-1.5h0.5v-3c0-3.844 3.156-7 7-7s7 3.156 7 7v3h0.5c0.828 0 1.5 0.672 1.5 1.5z"></path>
    </symbol>
    <symbol id="icon-spinner" viewBox="0 0 512 512">
        <title>
            Spinner
        </title>
        <!--Font-awesome circle-notch https://fontawesome.com/license CC-BY-Attribution !-->
        <g id="icon-spinner-group">
            <path d="M288 39.056v16.659c0 10.804 7.281 20.159 17.686 23.066C383.204 100.434 440 171.518 440 256c0 101.689-82.295 184-184 184-101.689 0-184-82.295-184-184 0-84.47 56.786-155.564 134.312-177.219C216.719 75.874 224 66.517 224 55.712V39.064c0-15.709-14.834-27.153-30.046-23.234C86.603 43.482 7.394 141.206 8.003 257.332c.72 137.052 111.477 246.956 248.531 246.667C393.255 503.711 504 392.788 504 256c0-115.633-79.14-212.779-186.211-240.236C302.678 11.889 288 23.456 288 39.056z"></path>
        </g>
    </symbol>
    <symbol id="icon-check-circle" viewBox="0 0 512 512">
        <!--Font-awesome check-circle https://fontawesome.com/license CC-BY-Attribution !-->
        <g id="icon-check-circle">
            <path d="M256 8C119.033 8 8 119.033 8 256s111.033 248 248 248 248-111.033 248-248S392.967 8 256 8zm0 48c110.532 0 200 89.451 200 200 0 110.532-89.451 200-200 200-110.532 0-200-89.451-200-200 0-110.532 89.451-200 200-200m140.204 130.267l-22.536-22.718c-4.667-4.705-12.265-4.736-16.97-.068L215.346 303.697l-59.792-60.277c-4.667-4.705-12.265-4.736-16.97-.069l-22.719 22.536c-4.705 4.667-4.736 12.265-.068 16.971l90.781 91.516c4.667 4.705 12.265 4.736 16.97.068l172.589-171.204c4.704-4.668 4.734-12.266.067-16.971z">
            </path>
        </g>
    </symbol>
    <symbol id="fast-backward" viewBox="0 0 512 512">
        <!--Font-awesome fast-backward https://fontawesome.com/license CC-BY-Attribution !-->
        <g id="fast-backward">
            <path fill="currentColor" d="M0 436V76c0-6.6 5.4-12 12-12h40c6.6 0 12 5.4 12 12v151.9L235.5 71.4C256.1 54.3 288 68.6 288 96v131.9L459.5 71.4C480.1 54.3 512 68.6 512 96v320c0 27.4-31.9 41.7-52.5 24.6L288 285.3V416c0 27.4-31.9 41.7-52.5 24.6L64 285.3V436c0 6.6-5.4 12-12 12H12c-6.6 0-12-5.4-12-12z">
            </path>
        </g>
    </symbol>
    <symbol id="check-solid" viewBox="0 0 512 512">
        <!--Font-awesome check-solid https://fontawesome.com/license CC-BY-Attribution !-->
        <g id="check-solid">
            <path fill="currentColor" d="M173.898 439.404l-166.4-166.4c-9.997-9.997-9.997-26.206 0-36.204l36.203-36.204c9.997-9.998 26.207-9.998 36.204 0L192 312.69 432.095 72.596c9.997-9.997 26.207-9.997 36.204 0l36.203 36.204c9.997 9.997 9.997 26.206 0 36.204l-294.4 294.401c-9.998 9.997-26.207 9.997-36.204-.001z"/>
        </g>
    </symbol>
    <symbol id="bars" height="1792" viewBox="0 0 1792 1792">
        <g id="bars">
            <path d="M1664 1344v128q0 26-19 45t-45 19h-1408q-26 0-45-19t-19-45v-128q0-26 19-45t45-19h1408q26 0 45 19t19 45zm0-512v128q0 26-19 45t-45 19h-1408q-26 0-45-19t-19-45v-128q0-26 19-45t45-19h1408q26 0 45 19t19 45zm0-512v128q0 26-19 45t-45 19h-1408q-26 0-45-19t-19-45v-128q0-26 19-45t45-19h1408q26 0 45 19t19 45z"/>
        </g>
    </symbol>
    <symbol id="icon-wl-brain" width="26" height="26" viewBox="0 0 26 26" >
        <!-- Generator: Sketch 52.4 (67378) - http://www.bohemiancoding.com/sketch -->
        <title>icon-wl-brain</title>
        <desc>Created with Sketch.</desc>
        <g id="Page-2" stroke="none" stroke-width="1" fill="none" fill-rule="evenodd" stroke-linecap="round" stroke-linejoin="round">
            <g id="Artboard" transform="translate(-80.000000, -33.000000)" stroke="currentColor" stroke-width="1.25">
                <g id="icon-wl-brain" transform="translate(81.000000, 34.000000)">
                    <path d="M9.477,17.251 C9.47700008,15.4559127 8.02208718,14.0005522 6.227,14 C6.174,14 6.127,14.013 6.074,14.016" id="Path"></path>
                    <path d="M9.139,4.388 C10.1071794,4.06154926 10.6736294,3.05782814 10.4526509,2.06027619 C10.2316724,1.06272423 9.29432573,0.392125319 8.27885567,0.505094155 C7.26338561,0.618062991 6.49633799,1.47827206 6.5,2.5 C6.50273041,2.68084368 6.52997882,2.86048132 6.581,3.034 C6.47,3.025 6.363,3 6.25,3 C4.82125583,2.99272637 3.51375534,3.80180432 2.88272268,5.08366258 C2.25169001,6.36552084 2.40789271,7.89515 3.285,9.023 C1.71628128,9.12669427 0.496882579,10.4293579 0.496882579,12.0015 C0.496882579,13.5736421 1.71628128,14.8763057 3.285,14.98 C2.4088849,16.1076699 2.25328058,17.6364954 2.88423445,18.9175552 C3.51518832,20.198615 4.82200641,21.0071611 6.25,21 C6.363,21 6.47,20.977 6.581,20.967 C6.28383855,22.0182201 6.88514293,23.1134021 7.93160342,23.4269131 C8.97806392,23.7404241 10.0824855,23.1562636 10.4122698,22.114817 C10.7420542,21.0733704 10.1751796,19.9599776 9.139,19.614" id="Path"></path>
                    <path d="M6.074,9.986 C6.126,9.986 6.174,10.001 6.227,10.001 C8.02169676,10.000448 9.47644804,8.54569676 9.477,6.751" id="Path"></path>
                    <path d="M14.523,17.251 C14.5229999,15.4559127 15.9779128,14.0005522 17.773,14 C17.826,14 17.873,14.013 17.926,14.016" id="Path"></path>
                    <path d="M14.861,4.388 C13.8928206,4.06154926 13.3263706,3.05782814 13.5473491,2.06027619 C13.7683276,1.06272423 14.7056743,0.392125319 15.7211443,0.505094155 C16.7366144,0.618062991 17.503662,1.47827206 17.5,2.5 C17.4972696,2.68084368 17.4700212,2.86048132 17.419,3.034 C17.53,3.024 17.637,3 17.75,3 C19.1783755,2.99302696 20.4854349,3.80196155 21.1163884,5.08344617 C21.7473419,6.36493078 21.5914958,7.89414352 20.715,9.022 C22.2837187,9.12569427 23.5031174,10.4283579 23.5031174,12.0005 C23.5031174,13.5726421 22.2837187,14.8753057 20.715,14.979 C21.5917266,16.1066634 21.7476874,17.6359054 21.1166544,18.9173389 C20.4856213,20.1987723 19.1783622,21.0074617 17.75,21 C17.637,21 17.53,20.977 17.419,20.967 C17.7161614,22.0182201 17.1148571,23.1134021 16.0683966,23.4269131 C15.0219361,23.7404241 13.9175145,23.1562636 13.5877302,22.114817 C13.2579458,21.0733704 13.8248204,19.9599776 14.861,19.614" id="Path"></path>
                    <path d="M17.926,9.986 C17.874,9.986 17.826,10.001 17.773,10.001 C15.9783032,10.000448 14.523552,8.54569676 14.523,6.751" id="Path"></path>
                    <path d="M10.5,2.4 C11.4282032,1.86410162 12.5717968,1.86410162 13.5,2.4" id="Path"></path>
                    <path d="M10.409,22.1 C11.4022898,22.6360615 12.5987102,22.6360615 13.592,22.1" id="Path"></path>
                    <path d="M12,7.001 L12,17.501" id="Path"></path>
                </g>
            </g>
        </g>
    </symbol>
    <symbol id="icon-wl-soft-tissue" width="25" height="26" viewBox="0 0 25 26">
        <!-- Generator: Sketch 52.4 (67378) - http://www.bohemiancoding.com/sketch -->
        <title>icon-wl-soft-tissue</title>
        <desc>Created with Sketch.</desc>
        <g id="Page-2" stroke="none" stroke-width="1" fill="none" fill-rule="evenodd" stroke-linecap="round" stroke-linejoin="round">
            <g id="Artboard" transform="translate(-165.000000, -33.000000)" stroke="currentColor" stroke-width="1.5">
                <g id="icon-wl-soft-tissue" transform="translate(166.000000, 33.000000)">
                    <path d="M14.967698,4.34501388 C15.2550298,4.40495392 15.4415328,4.45457827 15.49227,4.47472995 L18.99227,5.87472995 C19.9229327,6.24535421 20.6071984,7.05604396 20.81627,8.03572995 L22.9240586,12.8507299 C22.9557821,12.9984259 22.9190298,13.1525467 22.8240697,13.2700332 C22.7291096,13.3875196 22.5861231,13.4557751 22.4350586,13.4557299 L19.8300586,13.4557299 C19.59777,13.4558087 19.3960204,13.2959003 19.3430586,13.0697299 C18.4206468,11.3443101 17.9482939,10.4360314 17.926,10.3448938 C17.8925591,10.2081875 16.5995878,10.2646269 16.459794,10.2808938 C16.3200002,10.2971607 16.2142084,10.4149977 16.2130513,10.5557299 L17.00127,20.3677299 C17.00127,20.3924522 16.9994757,20.4167554 16.9960103,20.4405163 L17.339103,24.2068239 C17.3452344,24.3460372 17.2941797,24.4817044 17.197789,24.5823363 C17.1013983,24.6829682 16.9680538,24.7398138 16.8287056,24.7396788 L13.9563203,24.7396788 C13.6914418,24.7407536 13.46976,24.5390231 13.4459229,24.2752171 L12.8473618,20.8677299 L10.1448444,20.8677299 L9.49110077,24.2803211 C9.46701518,24.5439249 9.24540292,24.7453704 8.98070334,24.7442724 L6.11087007,24.7442724 C5.97161444,24.7444012 5.83835272,24.6876252 5.74197794,24.5871063 C5.64560316,24.4865874 5.59448459,24.3510547 5.60047264,24.2119279 L6.14951108,15.8281788 L6.32074271,10.6197299 C6.31958556,10.4789977 6.21379378,10.3611607 6.074,10.3448938 C5.93420622,10.3286269 4.85576757,10.2964486 4.82232666,10.433155 L3.7992041,13.0707299 C3.74559243,13.2975992 3.54231637,13.4573161 3.3092041,13.4557299 L0.709204102,13.4557299 C0.557909896,13.4562444 0.414519128,13.3882257 0.319204102,13.2707299 C0.224030189,13.1530765 0.187261793,12.9986492 0.219204102,12.8507299 L2.18526996,8.03772995 C2.39454762,7.05764471 3.08031159,6.24726462 4.01226996,5.87872995 L7.51226996,4.47872995 C7.56317342,4.45842417 7.74746599,4.41024276 8.03238467,4.35190973 L8.61849365,0.987915039 C9.55902913,1.39587402 10.4626872,1.59985352 11.3294678,1.59985352 C12.1962484,1.59985352 13.0229899,1.39587402 13.8096924,0.987915039 L14.967698,4.34501388 Z" id="Combined-Shape"></path>
                </g>
            </g>
        </g>
    </symbol>
    <symbol id="icon-wl-lung" width="27px" height="24px" viewBox="0 0 27 24">
        <!-- Generator: Sketch 52.4 (67378) - http://www.bohemiancoding.com/sketch -->
        <title>icon-wl-lung</title>
        <desc>Created with Sketch.</desc>
        <g id="Page-2" stroke="none" stroke-width="1" fill="none" fill-rule="evenodd">
            <g id="Artboard" transform="translate(-34.000000, -33.000000)" fill-rule="nonzero" stroke="currentColor" stroke-width="1.5">
                <g id="icon-wl-lung" transform="translate(35.000000, 33.000000)">
                    <path d="M4.54995935,23.0682142 L5.21755165,23.0682142 C7.73042481,23.0682142 9.767511,21.031128 9.767511,18.5182549 L9.767511,15.6678583 C9.767511,14.5637174 9.41504385,13.4884059 8.76143431,12.5985061 L8.76143431,12.5985061 C8.10782476,11.7086062 7.75535761,10.6332948 7.75535761,9.52915385 L7.75535761,6.94406376 C7.75535761,6.32558369 7.38554676,5.76703946 6.81616159,5.52554801 C5.25840278,5.17062216 4.58145592,5.710798 3.84612497,6.74773742 C3.19639763,7.66396146 2.11984103,9.64970738 0.616455185,12.7049752 L0.616455169,12.7049752 C0.210903154,13.5291615 -1.12491357e-16,14.4354596 0,15.3540212 L0,18.5182549 C3.07738207e-16,21.031128 2.03708619,23.0682142 4.54995935,23.0682142 Z" id="Path-2"></path>
                    <path d="M10.4645082,0 L10.4645082,7.63276134 C10.4645082,8.24023016 10.188418,8.81477376 9.7141179,9.19432323 L7.58333333,10.8994424" id="Path-3"></path>
                    <path d="M16.9645082,0 L16.9645082,7.63276134 C16.9645082,8.24023016 16.688418,8.81477376 16.2141179,9.19432323 L14.0833333,10.8994424" id="Path-3" transform="translate(15.523921, 5.449721) scale(-1, 1) translate(-15.523921, -5.449721) "></path>
                    <path d="M19.716626,23.0682142 L20.3842183,23.0682142 C22.8970915,23.0682142 24.9341777,21.031128 24.9341777,18.5182549 L24.9341777,15.6678583 C24.9341777,14.5637174 24.5817105,13.4884059 23.928101,12.5985061 L23.928101,12.5985061 C23.2744914,11.7086062 22.9220243,10.6332948 22.9220243,9.52915385 L22.9220243,6.94406376 C22.9220243,6.32558369 22.5522134,5.76703946 21.9828283,5.52554801 C20.4250695,5.17062216 19.7481226,5.710798 19.0127916,6.74773742 C18.3630643,7.66396146 17.2865077,9.64970738 15.7831219,12.7049752 L15.7831218,12.7049752 C15.3775698,13.5291615 15.1666667,14.4354596 15.1666667,15.3540212 L15.1666667,18.5182549 C15.1666667,21.031128 17.2037529,23.0682142 19.716626,23.0682142 Z" id="Path-2" transform="translate(20.050422, 14.242440) scale(-1, 1) translate(-20.050422, -14.242440) "></path>
                </g>
            </g>
        </g>
    </symbol>
    <symbol id="icon-wl-liver" width="27px" height="20px" viewBox="0 0 27 20">
        <!-- Generator: Sketch 52.4 (67378) - http://www.bohemiancoding.com/sketch -->
        <title>icon-wl-liver</title>
        <desc>Created with Sketch.</desc>
        <g id="Page-2" stroke="none" stroke-width="1" fill="none" fill-rule="evenodd">
            <g id="Artboard" transform="translate(-122.000000, -37.000000)" stroke="currentColor" stroke-width="1.65">
                <g id="icon-wl-liver" transform="translate(123.000000, 38.000000)">
                    <path d="M14.1879883,0.427249956 C15.0074875,0.0422121769 15.9522148,-0.00109444417 16.862793,2.04322665e-05 C19.2959911,0.00285829955 21.7960518,0.267011807 24.2293553,0.267721274 C24.632253,0.267923979 24.8592123,0.398871284 24.9616761,0.681948546 C25.0607665,0.955904091 24.9707418,1.17928479 24.6560769,1.42090892 C23.2066152,2.5337583 22.5823452,4.01684802 22.5593647,5.76365669 C22.5282671,8.13499886 20.9667489,10.242014 18.6967339,10.9516835 C17.246956,11.4049314 15.8264835,11.3236468 14.4399549,10.7120864 C14.4015837,10.6951606 14.3626854,10.6791469 14.3462406,10.6721536 C14.0117575,11.143949 13.7204948,11.6275013 13.3572334,12.0543976 C11.801513,13.8830991 9.76720674,14.7494594 7.3234671,14.7689191 C5.91806908,14.7801692 4.5964763,15.1070307 3.37713644,15.7857877 C2.51715767,16.2644751 1.76470259,16.8644813 1.17047602,17.6383069 C0.975141299,17.8924988 0.719930632,17.9690198 0.430038301,17.8745594 C0.145838402,17.7820247 0.0129095911,17.6005025 0.0128041757,17.2720194 C0.0117500218,13.9612418 -0.0213504117,10.6500587 0.0232402996,7.33988926 C0.0699393187,3.87870469 2.93565678,0.850598944 6.47624358,0.427249956 C8.18898075,0.222411674 10.6852298,0.729934666 12.1266085,1.97171448 C12.3659471,2.17791002 12.7690956,2.58896084 13.0694221,3.04543956 C13.3112364,3.41298323 13.6364656,3.89746342 13.7521632,4.10220046 C13.8678607,4.30693751 12.0604076,1.92012611 12.1266085,1.97171448 C12.65611,1.40566131 13.4924575,0.754111457 14.1879883,0.427249956 Z" id="Fill-1"></path>
                </g>
            </g>
        </g>
    </symbol>
</svg>
